<?xml version="1.0" encoding="utf-8"?>
<!-- Generated by IcoMoon.io -->
<!DOCTYPE svg PUBLIC "-//W3C//DTD SVG 1.1//EN" "http://www.w3.org/Graphics/SVG/1.1/DTD/svg11.dtd">
<svg version="1.1" xmlns="http://www.w3.org/2000/svg" xmlns:xlink="http://www.w3.org/1999/xlink" width="16" height="16" viewBox="0 0 16 16">
<path fill="#444444" d="M16 10.274c0-1.283-0.886-2.358-2.078-2.648-0.050-2.011-1.694-3.626-3.716-3.626-1.184 0-2.239 0.554-2.92 1.417-0.382-0.494-0.979-0.812-1.651-0.812-1.154 0-2.088 0.936-2.088 2.090 0 0.101 0.007 0.199 0.022 0.296-0.175-0.032-0.356-0.049-0.54-0.049-1.672 0-3.027 1.356-3.027 3.029s1.355 3.029 3.027 3.029h10.254c1.502-0.003 2.719-1.222 2.719-2.726z"></path>
</svg>
