<?xml version="1.0" encoding="utf-8"?>
<!-- Generated by IcoMoon.io -->
<!DOCTYPE svg PUBLIC "-//W3C//DTD SVG 1.1//EN" "http://www.w3.org/Graphics/SVG/1.1/DTD/svg11.dtd">
<svg version="1.1" xmlns="http://www.w3.org/2000/svg" xmlns:xlink="http://www.w3.org/1999/xlink" width="16" height="16" viewBox="0 0 16 16">
<path fill="#444444" d="M0.013 13.588c-0.004-0.040-0.007-0.079-0.009-0.119 0.002 0.040 0.005 0.079 0.009 0.119zM3.686 8.831c1.438 0.043 2.402-1.449 2.154-3.331s-1.615-3.393-3.053-3.437c-1.438-0.042-2.402 1.398-2.154 3.281s1.615 3.444 3.053 3.486zM16 4v-1.333c0-1.467-1.2-2.667-2.666-2.667h-10.666c-1.442 0-2.625 1.16-2.665 2.592 0.912-0.803 2.177-1.474 3.482-1.474 1.396 0 5.582 0 5.582 0l-1.249 1.056h-1.77c1.174 0.45 1.8 1.814 1.8 3.215 0 1.176-0.654 2.187-1.577 2.906-0.901 0.701-1.071 0.995-1.071 1.592 0 0.509 0.965 1.375 1.469 1.731 1.474 1.040 1.952 2.005 1.952 3.617 0 0.257-0.032 0.513-0.095 0.765h4.809c1.467 0 2.666-1.199 2.666-2.667v-8.333h-3v3h-1v-3h-3v-1h3v-3h1v3h3zM2.905 11.968c0.337 0 0.647-0.009 0.968-0.009-0.424-0.412-0.76-0.915-0.76-1.537 0-0.369 0.118-0.724 0.284-1.040-0.168 0.012-0.341 0.015-0.518 0.015-1.162 0-2.148-0.376-2.878-0.998v4.202c0.835-0.396 1.827-0.634 2.905-0.634zM0.053 13.864c-0.018-0.085-0.030-0.172-0.040-0.26 0.009 0.088 0.022 0.175 0.040 0.26zM7.117 14.888c-0.236-0.919-1.069-1.374-2.232-2.181-0.423-0.136-0.889-0.217-1.389-0.222-1.401-0.015-2.705 0.546-3.441 1.381 0.249 1.214 1.329 2.133 2.613 2.133h4.476c0.029-0.174 0.042-0.354 0.042-0.538 0-0.196-0.024-0.387-0.069-0.574z"></path>
</svg>
