<?xml version="1.0" encoding="utf-8"?>
<!-- Generated by IcoMoon.io -->
<!DOCTYPE svg PUBLIC "-//W3C//DTD SVG 1.1//EN" "http://www.w3.org/Graphics/SVG/1.1/DTD/svg11.dtd">
<svg version="1.1" xmlns="http://www.w3.org/2000/svg" xmlns:xlink="http://www.w3.org/1999/xlink" width="16" height="16" viewBox="0 0 16 16">
<path fill="#444444" d="M8.021 16l-0.827-1.126c-1.015-1.383-2.212-2.377-3.37-3.338-0.973-0.807-1.892-1.57-2.591-2.485-0.829-1.085-1.232-2.252-1.232-3.569 0-2.471 2.097-4.482 4.675-4.482 0.901 0 1.798 0.317 2.596 0.916 0.26 0.195 0.505 0.418 0.729 0.663 0.225-0.244 0.47-0.467 0.729-0.663 0.796-0.599 1.694-0.916 2.595-0.916 2.578 0 4.675 2.010 4.675 4.482 0 1.266-0.404 2.405-1.235 3.482-0.694 0.9-1.601 1.662-2.562 2.469-1.182 0.993-2.405 2.019-3.383 3.421l-0.8 1.145zM4.675 3c-1.475 0-2.675 1.114-2.675 2.482 0 1.942 1.301 3.021 3.101 4.516 0.92 0.764 1.935 1.606 2.884 2.676 0.947-1.104 1.989-1.979 2.933-2.773 0.875-0.735 1.702-1.43 2.264-2.159 0.566-0.734 0.818-1.431 0.818-2.26 0-1.369-1.2-2.482-2.675-2.482-0.749 0-1.829 0.551-2.428 1.763l-0.896 1.809-0.896-1.809c-0.6-1.211-1.68-1.763-2.429-1.763z"></path>
</svg>
