<?xml version="1.0" encoding="utf-8"?>
<!-- Generated by IcoMoon.io -->
<!DOCTYPE svg PUBLIC "-//W3C//DTD SVG 1.1//EN" "http://www.w3.org/Graphics/SVG/1.1/DTD/svg11.dtd">
<svg version="1.1" xmlns="http://www.w3.org/2000/svg" xmlns:xlink="http://www.w3.org/1999/xlink" width="20" height="16" viewBox="0 0 20 16">
<path fill="#444444" d="M19 1v5.75c0 0.147-0.133 0.469-0.238 0.573l-7.262 7.262-6.086-6.086 7.263-7.263c0.104-0.105 0.425-0.238 0.573-0.238h5.75zM19.25 0h-6c-0.412 0-0.989 0.238-1.28 0.53l-7.439 7.439c-0.292 0.292-0.292 0.769 0 1.061l6.439 6.439c0.146 0.146 0.338 0.219 0.53 0.219s0.384-0.073 0.53-0.219l7.439-7.439c0.291-0.292 0.53-0.868 0.53-1.28v-6c0-0.412-0.337-0.75-0.75-0.75v0z"></path>
<path fill="#444444" d="M17 4.5c0 0.829-0.672 1.5-1.5 1.5s-1.5-0.671-1.5-1.5c0-0.829 0.671-1.5 1.5-1.5s1.5 0.671 1.5 1.5z"></path>
<path fill="#444444" d="M9.914 0h-0.664c-0.412 0-0.989 0.238-1.28 0.53l-7.439 7.439c-0.291 0.292-0.291 0.769 0 1.061l6.439 6.439c0.146 0.146 0.338 0.219 0.53 0.219s0.385-0.073 0.53-0.219l0.177-0.177-6.793-6.793 8.5-8.5z"></path>
</svg>
