<?xml version="1.0" encoding="utf-8"?>
<!-- Generated by IcoMoon.io -->
<!DOCTYPE svg PUBLIC "-//W3C//DTD SVG 1.1//EN" "http://www.w3.org/Graphics/SVG/1.1/DTD/svg11.dtd">
<svg version="1.1" xmlns="http://www.w3.org/2000/svg" xmlns:xlink="http://www.w3.org/1999/xlink" width="40" height="16" viewBox="0 0 40 16">
<path fill="#444444" d="M5.375 2.647c0.003-0.014 0.005-0.023 0.006-0.028l0.016-0.118-0.74-0.004c-0.668-0.004-0.873 0-0.891 0.017-0.009 0.008-0.24 0.885-0.651 2.473-0.196 0.758-0.361 1.362-0.367 1.345s-0.24-0.883-0.522-1.921c-0.281-1.039-0.517-1.894-0.524-1.901-0.010-0.010-0.906-0.014-1.631-0.008-0.105 0.001-0.164-0.205 0.938 3.299 0.153 0.485 0.381 1.172 0.508 1.526 0.146 0.409 0.25 0.724 0.321 0.987 0.125 0.501 0.13 0.815 0.103 1.181-0.032 0.424-0.036 3.413-0.006 3.463 0.024 0.039 1.425 0.056 1.558 0.020 0.021-0.006 0.035-0.027 0.045-0.139 0.033-0.097 0.035-0.484 0.035-2.090v-2.051l0.090-0.283c0.058-0.185 0.207-0.672 0.328-1.082s0.269-0.901 0.327-1.090c0.529-1.723 1.034-3.419 1.047-3.516l0.011-0.079z"></path>
<path fill="#444444" d="M13.22 5.135l-0.001 0.107h-0.017l-0.009 2.953-0.009 2.863-0.229 0.233c-0.257 0.261-0.463 0.361-0.649 0.315-0.203-0.051-0.197 0.028-0.214-3.356l-0.015-3.115h-1.473v0.107h-0.017v3.38c0 3.621 0 3.619 0.184 3.982 0.146 0.29 0.36 0.431 0.725 0.479v0c0.481 0.064 1-0.154 1.481-0.622l0.209-0.204v0.351c0 0.303 0.008 0.353 0.063 0.368 0.090 0.025 1.206 0.027 1.326 0.002l0.1-0.021v-0.104l0.017-0.004v-7.736l-1.472 0.019z"></path>
<path fill="#444444" d="M9.482 6.662c-0.139-0.599-0.401-1.002-0.832-1.28-0.676-0.438-1.449-0.484-2.165-0.13-0.522 0.258-0.859 0.686-1.032 1.314-0.021 0.075-0.036 0.138-0.048 0.231-0.044 0.221-0.050 0.553-0.061 2.093-0.018 2.374 0.010 2.656 0.307 3.195 0.292 0.529 0.897 0.916 1.556 0.996 0.199 0.024 0.601-0.014 0.831-0.078 0.525-0.146 1.029-0.561 1.252-1.033 0.096-0.204 0.155-0.345 0.19-0.604 0.065-0.354 0.070-0.925 0.070-2.381 0-1.857-0.006-2.061-0.068-2.325zM7.802 11.5c-0.123 0.094-0.34 0.135-0.516 0.098-0.136-0.029-0.318-0.241-0.374-0.434-0.070-0.241-0.075-3.594-0.015-4.251 0.099-0.329 0.378-0.501 0.682-0.419 0.237 0.064 0.358 0.212 0.427 0.523 0.052 0.231 0.057 0.518 0.046 2.207-0.007 1.12-0.011 1.668-0.048 1.962-0.037 0.185-0.098 0.235-0.204 0.315z"></path>
<path fill="#444444" d="M35.944 8.346h0.712l-0.011-0.645c-0.011-0.591-0.020-0.659-0.099-0.82-0.124-0.253-0.309-0.365-0.6-0.365-0.35 0-0.573 0.17-0.678 0.518-0.044 0.148-0.092 1.167-0.058 1.255 0.019 0.049 0.12 0.058 0.734 0.058z"></path>
<path fill="#444444" d="M31.184 6.878c-0.095-0.192-0.271-0.285-0.477-0.278-0.16 0.005-0.337 0.073-0.508 0.204l-0.127 0.096v4.635l0.127 0.097c0.288 0.22 0.605 0.266 0.822 0.12 0.086-0.057 0.142-0.137 0.186-0.264 0.057-0.165 0.062-0.375 0.055-2.325-0.008-2.032-0.012-2.152-0.078-2.285z"></path>
<path fill="#444444" d="M40.014 4.791c-0.142-1.7-0.255-2.252-0.605-2.962-0.465-0.939-1.136-1.434-2.092-1.543-0.739-0.084-3.52-0.203-6.095-0.26-4.456-0.099-11.782 0.091-12.718 0.331-0.433 0.11-0.756 0.298-1.094 0.635-0.591 0.589-0.944 1.433-1.085 2.6-0.323 2.665-0.33 5.886-0.018 8.649 0.134 1.188 0.41 1.96 0.928 2.596 0.323 0.397 0.881 0.735 1.379 0.835 0.35 0.070 2.101 0.168 4.65 0.261 0.38 0.014 1.386 0.037 2.235 0.053 1.77 0.031 5.026 0.013 6.886-0.040 1.252-0.035 3.535-0.127 3.961-0.161 0.12-0.009 0.398-0.027 0.618-0.040 0.739-0.041 1.209-0.197 1.65-0.543 0.571-0.448 1.014-1.278 1.2-2.251 0.177-0.92 0.295-2.559 0.319-4.42 0.020-1.554-0.007-2.393-0.119-3.741zM22.27 4.175l-0.828 0.010-0.037 8.831-0.718 0.009c-0.555 0.008-0.724-0.001-0.737-0.037-0.009-0.025-0.021-2.016-0.026-4.425l-0.009-4.379-1.617-0.021v-1.38l4.779 0.019 0.020 1.361-0.828 0.010zM27.347 9.236v3.797h-1.308v-0.399c0-0.3-0.012-0.399-0.047-0.399-0.026 0-0.144 0.099-0.264 0.22-0.259 0.263-0.565 0.475-0.826 0.572-0.541 0.203-1.056 0.085-1.276-0.293-0.201-0.345-0.204-0.422-0.204-4.005v-3.29h1.307l0.010 3.098c0.009 3.044 0.011 3.1 0.084 3.224 0.096 0.165 0.244 0.209 0.478 0.144 0.138-0.038 0.232-0.105 0.456-0.327l0.282-0.28v-5.859h1.308v3.798zM32.45 12.491c-0.115 0.257-0.372 0.508-0.582 0.57-0.549 0.162-0.99 0.030-1.499-0.448-0.158-0.149-0.305-0.269-0.327-0.269-0.026 0-0.041 0.117-0.041 0.345v0.345h-1.308v-10.248h1.308v1.671c0 0.92 0.012 1.671 0.027 1.671s0.153-0.122 0.306-0.271c0.354-0.341 0.649-0.49 1.024-0.519 0.669-0.051 1.067 0.293 1.25 1.080 0.057 0.245 0.063 0.526 0.063 2.798 0 2.768-0.001 2.78-0.221 3.273zM37.984 10.972c-0.011 0.285-0.046 0.611-0.077 0.727-0.182 0.675-0.666 1.152-1.366 1.348-0.943 0.264-1.98-0.168-2.394-0.997-0.233-0.465-0.24-0.558-0.24-2.831 0-1.854 0.007-2.081 0.066-2.333 0.168-0.715 0.584-1.179 1.289-1.436 0.204-0.074 0.417-0.112 0.63-0.117 0.761-0.016 1.516 0.394 1.831 1.059 0.214 0.449 0.24 0.641 0.261 1.908l0.020 1.136-2.789 0.020-0.010 0.763c-0.014 1.076 0.058 1.408 0.349 1.604 0.245 0.165 0.62 0.152 0.825-0.027 0.191-0.168 0.245-0.349 0.264-0.877l0.017-0.463h1.347l-0.022 0.518z"></path>
</svg>
