<?xml version="1.0" encoding="utf-8"?>
<!-- Generated by IcoMoon.io -->
<!DOCTYPE svg PUBLIC "-//W3C//DTD SVG 1.1//EN" "http://www.w3.org/Graphics/SVG/1.1/DTD/svg11.dtd">
<svg version="1.1" xmlns="http://www.w3.org/2000/svg" xmlns:xlink="http://www.w3.org/1999/xlink" width="16" height="16" viewBox="0 0 16 16">
<path fill="#444444" d="M15.4 0.95v0.75h0.55v-0.75h-0.55zM14.6 0.6h0.55c0.050 0 0.1 0 0.1 0l0.2-0.5c-0.1-0.050-0.2-0.050-0.35-0.050h-0.55v0.55h0.050zM13.1 0.6h0.75v-0.55h-0.75v0.55zM11.6 0.6h0.75v-0.55h-0.75v0.55zM10.1 0.6h0.75v-0.55h-0.75v0.55zM8.55 0.6h0.75v-0.55h-0.75v0.55zM7.050 0.6h0.75v-0.55h-0.75v0.55zM5.55 0.6h0.75v-0.55h-0.75v0.55zM4.050 0.6h0.75v-0.55h-0.75v0.55zM2.5 0.6h0.75v-0.55h-0.75v0.55zM1 0.6h0.75v-0.55h-0.75v0.55zM0.6 1.45v-0.5c0-0.050 0-0.1 0.050-0.15l-0.5-0.25c-0.050 0.1-0.1 0.25-0.1 0.4v0.5h0.55zM0.6 2.95v-0.75h-0.55v0.75h0.55zM0.6 4.45v-0.75h-0.55v0.75h0.55zM0.6 5.95v-0.75h-0.55v0.75h0.55zM0.6 7.5v-0.75h-0.55v0.75h0.55zM0.6 9v-0.75h-0.55v0.75h0.55zM0.6 10.5v-0.75h-0.55v0.75h0.55zM0.6 12v-0.75h-0.55v0.75h0.55zM0.6 13.55v-0.75h-0.55v0.75h0.55zM0.6 15.050v-0.75h-0.55v0.75h0.55zM1.45 15.4h-0.45c-0.050 0-0.15 0-0.2-0.050l-0.2 0.5c0.1 0.050 0.25 0.1 0.4 0.1h0.45v-0.55zM2.95 15.4h-0.75v0.55h0.75v-0.55zM4.5 15.4h-0.75v0.55h0.75v-0.55zM6 15.4h-0.75v0.55h0.75v-0.55zM7.5 15.4h-0.75v0.55h0.75v-0.55zM9 15.4h-0.75v0.55h0.75v-0.55zM10.55 15.4h-0.75v0.55h0.75v-0.55zM12.050 15.4h-0.75v0.55h0.75v-0.55zM13.55 15.4h-0.75v0.55h0.75v-0.55zM15.1 15.4h-0.75v0.55h0.75v-0.55zM15.4 14.55v0.55c0 0.050 0 0.1 0 0.15l0.55 0.15c0.050-0.1 0.050-0.2 0.050-0.3v-0.55h-0.6zM15.4 13.050v0.75h0.55v-0.75h-0.55zM15.4 11.55v0.75h0.55v-0.75h-0.55zM15.4 10v0.75h0.55v-0.75h-0.55zM15.4 8.5v0.75h0.55v-0.75h-0.55zM15.4 7v0.75h0.55v-0.75h-0.55zM15.4 5.5v0.75h0.55v-0.75h-0.55zM15.4 3.95v0.75h0.55v-0.75h-0.55zM15.4 2.45v0.75h0.55v-0.75h-0.55z"></path>
<path fill="#444444" d="M7.6 12.35c-0.65-0.050-1.3-0.2-1.9-0.45-0.6-0.2-1.15-0.5-1.65-0.85l1.2-1.75c0.4 0.3 0.85 0.55 1.25 0.7 0.4 0.2 0.8 0.3 1.2 0.35v-1.6c-0.55-0.1-1-0.25-1.4-0.4s-0.75-0.35-1-0.55c-0.25-0.2-0.45-0.5-0.6-0.8s-0.2-0.65-0.2-1.050v-0.050c0-0.4 0.050-0.75 0.2-1.050s0.35-0.6 0.6-0.85c0.25-0.25 0.6-0.45 1-0.6s0.85-0.25 1.35-0.3v-0.75h1.35v0.8c0.55 0.050 1.050 0.2 1.5 0.35 0.45 0.2 0.9 0.4 1.3 0.65l-1.1 1.75c-0.25-0.2-0.55-0.35-0.85-0.5s-0.6-0.25-0.9-0.3v1.55c0.55 0.1 1 0.25 1.35 0.45 0.4 0.15 0.7 0.35 1 0.6 0.25 0.2 0.45 0.5 0.6 0.8s0.2 0.65 0.2 1.050v0.050c0 0.4-0.050 0.75-0.2 1.1-0.15 0.3-0.35 0.6-0.65 0.85-0.25 0.25-0.6 0.45-1 0.55-0.4 0.15-0.8 0.25-1.25 0.3v1.3h-1.35v-1.35zM7.7 5.050c-0.3 0.050-0.55 0.1-0.7 0.2s-0.2 0.25-0.2 0.45v0.050c0 0.2 0.050 0.3 0.2 0.45 0.1 0.1 0.35 0.2 0.7 0.3v-1.45zM8.95 10.45c0.6-0.050 0.9-0.3 0.9-0.65v-0.050c0-0.2-0.050-0.3-0.2-0.45-0.1-0.1-0.35-0.2-0.7-0.3v1.45z"></path>
</svg>
