<?xml version="1.0" encoding="utf-8"?>
<!-- Generated by IcoMoon.io -->
<!DOCTYPE svg PUBLIC "-//W3C//DTD SVG 1.1//EN" "http://www.w3.org/Graphics/SVG/1.1/DTD/svg11.dtd">
<svg version="1.1" xmlns="http://www.w3.org/2000/svg" xmlns:xlink="http://www.w3.org/1999/xlink" width="16" height="16" viewBox="0 0 16 16">
<path fill="#444444" d="M8 0c-4.418 0-8 3.582-8 8s3.582 8 8 8 8-3.582 8-8-3.582-8-8-8zM4 4h8c0.143 0 0.281 0.030 0.409 0.088l-4.409 5.143-4.409-5.144c0.127-0.058 0.265-0.088 0.409-0.088zM3 11v-6c0-0.021 0.001-0.042 0.002-0.063l2.932 3.421-2.9 2.9c-0.022-0.084-0.034-0.17-0.034-0.258zM12 12h-8c-0.088 0-0.175-0.012-0.259-0.034l2.845-2.845 1.413 1.649 1.413-1.649 2.845 2.845c-0.084 0.023-0.17 0.034-0.258 0.034zM13 11c0 0.088-0.012 0.175-0.034 0.258l-2.9-2.9 2.933-3.421c0.002 0.021 0.002 0.042 0.002 0.063v6z"></path>
</svg>
