<?xml version="1.0" encoding="utf-8"?>
<!-- Generated by IcoMoon.io -->
<!DOCTYPE svg PUBLIC "-//W3C//DTD SVG 1.1//EN" "http://www.w3.org/Graphics/SVG/1.1/DTD/svg11.dtd">
<svg version="1.1" xmlns="http://www.w3.org/2000/svg" xmlns:xlink="http://www.w3.org/1999/xlink" width="16" height="16" viewBox="0 0 16 16">
<path fill="#444444" d="M8 0c-4.418 0-8 3.582-8 8 0 3.389 2.108 6.284 5.085 7.45-0.070-0.633-0.133-1.604 0.027-2.295 0.146-0.624 0.938-3.976 0.938-3.976s-0.239-0.479-0.239-1.188c0-1.112 0.645-1.943 1.447-1.943 0.683 0 1.012 0.513 1.012 1.127 0 0.686-0.437 1.712-0.662 2.663-0.189 0.796 0.399 1.446 1.184 1.446 1.422 0 2.515-1.499 2.515-3.663 0-1.915-1.377-3.255-3.341-3.255-2.276 0-3.612 1.708-3.612 3.471 0 0.688 0.265 1.425 0.596 1.825 0.066 0.079 0.075 0.149 0.056 0.229-0.061 0.253-0.196 0.796-0.222 0.908-0.035 0.146-0.116 0.178-0.268 0.107-0.999-0.465-1.624-1.926-1.624-3.099 0-2.524 1.833-4.841 5.286-4.841 2.775 0 4.932 1.978 4.932 4.62 0 2.757-1.739 4.976-4.151 4.976-0.81 0-1.572-0.421-1.833-0.918 0 0-0.401 1.527-0.498 1.902-0.181 0.695-0.668 1.566-0.995 2.098 0.748 0.232 1.544 0.356 2.369 0.356 4.418 0 8-3.582 8-8s-3.582-8-8-8z"></path>
</svg>
