<?xml version="1.0" encoding="utf-8"?>
<!-- Generated by IcoMoon.io -->
<!DOCTYPE svg PUBLIC "-//W3C//DTD SVG 1.1//EN" "http://www.w3.org/Graphics/SVG/1.1/DTD/svg11.dtd">
<svg version="1.1" xmlns="http://www.w3.org/2000/svg" xmlns:xlink="http://www.w3.org/1999/xlink" width="17" height="16" viewBox="0 0 17 16">
<path fill="#444444" d="M15.177 6.918v6.43c0 0.731-0.244 1.371-0.762 1.859-0.518 0.518-1.128 0.762-1.859 0.762h-8.716c-0.731 0-1.341-0.244-1.829-0.762-0.518-0.518-0.762-1.128-0.762-1.859v-8.655c0-0.701 0.244-1.341 0.762-1.829 0.518-0.518 1.128-0.762 1.829-0.762h7.253l-1.189 1.737h-6.065c-0.244 0-0.427 0.091-0.61 0.274s-0.274 0.366-0.274 0.61v8.686c0 0.244 0.091 0.457 0.274 0.64s0.366 0.274 0.61 0.274h8.686c0.244 0 0.457-0.091 0.64-0.274s0.274-0.396 0.274-0.64v-3.87l1.737-2.621zM8.869 12.221c-0.366 0-0.67-0.122-0.945-0.396l-3.291-3.261c-0.244-0.244-0.396-0.549-0.396-0.914s0.122-0.67 0.396-0.914c0.244-0.244 0.549-0.396 0.914-0.396s0.67 0.122 0.914 0.396l2.194 2.133 5.577-8.32c0.183-0.305 0.457-0.488 0.823-0.549s0.701 0 0.975 0.183c0.305 0.213 0.488 0.488 0.549 0.823s0 0.67-0.213 1.006l-6.43 9.63c-0.122 0.152-0.274 0.305-0.457 0.427s-0.396 0.152-0.61 0.152z"></path>
</svg>
