<?xml version="1.0" encoding="utf-8"?>
<!-- Generated by IcoMoon.io -->
<!DOCTYPE svg PUBLIC "-//W3C//DTD SVG 1.1//EN" "http://www.w3.org/Graphics/SVG/1.1/DTD/svg11.dtd">
<svg version="1.1" xmlns="http://www.w3.org/2000/svg" xmlns:xlink="http://www.w3.org/1999/xlink" width="16" height="16" viewBox="0 0 16 16">
<path fill="#444444" d="M15.78 14.309v0l-6.829-13.611c-0.261-0.465-0.607-0.698-0.952-0.698s-0.689 0.233-0.952 0.698l-6.83 13.611c-0.523 0.93-0.078 1.691 0.989 1.691h13.583c1.067 0 1.513-0.761 0.989-1.691zM8 14c-0.553 0-1-0.447-1-1s0.447-1 1-1c0.553 0 1 0.447 1 1s-0.447 1-1 1zM9 10c0 0.553-0.447 1-1 1s-1-0.447-1-1v-3c0-0.553 0.447-1 1-1s1 0.447 1 1v3z"></path>
</svg>
