<?xml version="1.0" encoding="utf-8"?>
<!-- Generated by IcoMoon.io -->
<!DOCTYPE svg PUBLIC "-//W3C//DTD SVG 1.1//EN" "http://www.w3.org/Graphics/SVG/1.1/DTD/svg11.dtd">
<svg version="1.1" xmlns="http://www.w3.org/2000/svg" xmlns:xlink="http://www.w3.org/1999/xlink" width="16" height="16" viewBox="0 0 16 16">
<path fill="#444444" d="M8 8.5l-3.5 3.5h2.5v3h2v-3h2.5l-3.5-3.5z"></path>
<path fill="#444444" d="M13.941 8.040c0.039-0.176 0.059-0.357 0.059-0.54 0-1.378-1.121-2.5-2.5-2.5-0.218 0-0.434 0.029-0.643 0.084-0.388-1.208-1.522-2.084-2.857-2.084-1.354 0-2.514 0.907-2.88 2.158-0.359-0.104-0.735-0.158-1.12-0.158-2.205 0-4 1.795-4 4 0 0.969 0.35 1.903 0.988 2.631 0.63 0.722 1.498 1.193 2.442 1.328 0.024 0.004 0.048 0.005 0.071 0.005 0.245 0 0.458-0.18 0.494-0.429 0.039-0.274-0.151-0.527-0.424-0.566-0.707-0.101-1.357-0.455-1.831-0.996-0.478-0.546-0.741-1.247-0.741-1.973 0-1.654 1.346-3 3-3 0.813 0 1.574 0.32 2.143 0.901 0.193 0.197 0.51 0.2 0.707 0.007s0.2-0.51 0.007-0.707c-0.245-0.25-0.516-0.463-0.808-0.638 0.2-0.897 1.005-1.563 1.952-1.563 1.103 0 2 0.897 2 2 0 0.136-0.014 0.272-0.040 0.404-0.056 0.271 0.119 0.534 0.389 0.59 0.034 0.007 0.068 0.011 0.101 0.011 0.232 0 0.441-0.163 0.489-0.4 0.034-0.17 0.055-0.343 0.059-0.518 0.16-0.056 0.329-0.087 0.502-0.087 0.827 0 1.5 0.673 1.5 1.5 0 0.171-0.030 0.34-0.085 0.5h-0.415c-0.276 0-0.5 0.224-0.5 0.5s0.224 0.5 0.5 0.5h1c0.827 0 1.5 0.673 1.5 1.5s-0.673 1.5-1.5 1.5h-1c-0.276 0-0.5 0.224-0.5 0.5s0.224 0.5 0.5 0.5h1c1.379 0 2.5-1.121 2.5-2.5 0-1.228-0.89-2.252-2.059-2.46z"></path>
</svg>
