<?xml version="1.0" encoding="utf-8"?>
<!-- Generated by IcoMoon.io -->
<!DOCTYPE svg PUBLIC "-//W3C//DTD SVG 1.1//EN" "http://www.w3.org/Graphics/SVG/1.1/DTD/svg11.dtd">
<svg version="1.1" xmlns="http://www.w3.org/2000/svg" xmlns:xlink="http://www.w3.org/1999/xlink" width="16" height="16" viewBox="0 0 16 16">
<path fill="#444444" d="M15 2h-14c-0.55 0-1 0.45-1 1v10c0 0.55 0.45 1 1 1h14c0.55 0 1-0.45 1-1v-10c0-0.55-0.45-1-1-1zM5.831 9.773l-3 2.182c-0.1 0.072-0.216 0.107-0.33 0.107-0.174 0-0.345-0.081-0.455-0.232-0.183-0.251-0.127-0.603 0.124-0.786l3-2.182c0.251-0.182 0.603-0.127 0.786 0.124s0.127 0.603-0.124 0.786zM13.955 11.831c-0.11 0.152-0.281 0.232-0.456 0.232-0.115 0-0.23-0.035-0.331-0.107l-3-2.182c-0.252-0.183-0.307-0.534-0.124-0.786s0.534-0.306 0.786-0.124l3 2.182c0.251 0.183 0.306 0.534 0.124 0.786zM13.831 4.955l-5.5 4c-0.098 0.072-0.214 0.107-0.331 0.107s-0.232-0.036-0.331-0.107l-5.5-4c-0.251-0.183-0.307-0.534-0.124-0.786s0.534-0.307 0.786-0.124l5.169 3.76 5.169-3.76c0.251-0.183 0.603-0.127 0.786 0.124s0.127 0.603-0.124 0.786z"></path>
</svg>
