<?xml version="1.0" encoding="utf-8"?>
<!-- Generated by IcoMoon.io -->
<!DOCTYPE svg PUBLIC "-//W3C//DTD SVG 1.1//EN" "http://www.w3.org/Graphics/SVG/1.1/DTD/svg11.dtd">
<svg version="1.1" xmlns="http://www.w3.org/2000/svg" xmlns:xlink="http://www.w3.org/1999/xlink" width="16" height="16" viewBox="0 0 16 16">
<path fill="#444444" d="M13.334 0h-10.666c-1.467 0-2.667 1.2-2.667 2.667v10.666c0 1.468 1.2 2.667 2.667 2.667h10.666c1.467 0 2.666-1.199 2.666-2.667v-10.666c0-1.467-1.2-2.667-2.666-2.667zM13.334 2c0.125 0 0.243 0.037 0.344 0.099l-5.678 4.694-5.678-4.694c0.101-0.063 0.22-0.099 0.345-0.099h10.666zM2.667 14c-0.030 0-0.059-0.002-0.089-0.007l3.526-4.89-0.457-0.457-3.647 3.646v-9.549l6 7.256 6-7.256v9.549l-3.646-3.646-0.457 0.457 3.526 4.89c-0.029 0.004-0.059 0.007-0.088 0.007h-10.666z"></path>
</svg>
