<?xml version="1.0" encoding="utf-8"?>
<!-- Generated by IcoMoon.io -->
<!DOCTYPE svg PUBLIC "-//W3C//DTD SVG 1.1//EN" "http://www.w3.org/Graphics/SVG/1.1/DTD/svg11.dtd">
<svg version="1.1" xmlns="http://www.w3.org/2000/svg" xmlns:xlink="http://www.w3.org/1999/xlink" width="16" height="16" viewBox="0 0 16 16">
<path fill="#444444" d="M8 0c-4.418 0-8 3.582-8 8s3.582 8 8 8 8-3.582 8-8-3.582-8-8-8zM5 8c0-1.657 1.343-3 3-3s3 1.343 3 3-1.343 3-3 3-3-1.343-3-3zM14.469 10.68v0l-2.772-1.149c0.195-0.472 0.304-0.989 0.304-1.531s-0.108-1.059-0.304-1.531l2.772-1.149c0.342 0.825 0.531 1.73 0.531 2.679s-0.19 1.854-0.531 2.68v0zM10.68 1.532v0 0l-1.149 2.772c-0.472-0.196-0.989-0.304-1.531-0.304s-1.059 0.108-1.531 0.304l-1.149-2.772c0.825-0.342 1.73-0.531 2.679-0.531s1.854 0.189 2.68 0.531zM1.532 5.321l2.772 1.149c-0.196 0.471-0.304 0.989-0.304 1.531s0.108 1.059 0.304 1.531l-2.772 1.149c-0.343-0.825-0.531-1.73-0.531-2.68s0.189-1.854 0.531-2.679zM5.321 14.469l1.149-2.772c0.471 0.195 0.989 0.304 1.531 0.304s1.059-0.108 1.531-0.304l1.149 2.772c-0.825 0.342-1.73 0.531-2.68 0.531s-1.854-0.19-2.679-0.531z"></path>
</svg>
