<?xml version="1.0" encoding="utf-8"?>
<!-- Generated by IcoMoon.io -->
<!DOCTYPE svg PUBLIC "-//W3C//DTD SVG 1.1//EN" "http://www.w3.org/Graphics/SVG/1.1/DTD/svg11.dtd">
<svg version="1.1" xmlns="http://www.w3.org/2000/svg" xmlns:xlink="http://www.w3.org/1999/xlink" width="16" height="16" viewBox="0 0 16 16">
<path fill="#444444" d="M15.566 7.287c0-0.434-0.279-0.744-0.62-0.744h-14.357c-0.341 0-0.62 0.341-0.62 0.744v0.651h15.597v-0.651z"></path>
<path fill="#444444" d="M0 8.62c0.062 4.093 3.504 7.38 7.752 7.38s7.721-3.287 7.752-7.38h-15.504z"></path>
<path fill="#444444" d="M10.915 2.295l0.093 0.062c-0.589 0.806-1.55 2.109-2.574 3.473h4.186l0.899-1.953 0.093 0.062c0.372 0.217 0.837 0.093 1.054-0.279l0.527-0.868c0.217-0.372 0.093-0.837-0.279-1.054l-2.698-1.612c-0.372-0.217-0.837-0.124-1.054 0.248l-0.527 0.868c-0.217 0.372-0.093 0.837 0.279 1.054z"></path>
</svg>
