<?xml version="1.0" encoding="utf-8"?>
<!-- Generated by IcoMoon.io -->
<!DOCTYPE svg PUBLIC "-//W3C//DTD SVG 1.1//EN" "http://www.w3.org/Graphics/SVG/1.1/DTD/svg11.dtd">
<svg version="1.1" xmlns="http://www.w3.org/2000/svg" xmlns:xlink="http://www.w3.org/1999/xlink" width="10" height="16" viewBox="0 0 10 16">
<path fill="#444444" d="M4.943 0v5.593c0 0.338-0.13 0.65-0.364 0.885-0.234 0.26-0.52 0.364-0.885 0.364v8.689c0 0.182-0.052 0.338-0.182 0.442-0.104 0.104-0.26 0.182-0.442 0.182h-1.223c-0.182 0-0.338-0.052-0.442-0.182-0.104-0.104-0.182-0.26-0.182-0.442v-8.663c-0.338 0-0.65-0.13-0.885-0.364-0.208-0.26-0.338-0.546-0.338-0.911v-5.593h1.249v4.969h0.624v-4.969h1.249v4.969h0.624v-4.969h1.197zM8.689 0c0.52 0 0.963 0.182 1.327 0.546s0.52 0.806 0.52 1.327v13.685c0 0.182-0.052 0.338-0.182 0.442-0.104 0.104-0.26 0.182-0.442 0.182h-1.249c-0.182 0-0.338-0.052-0.442-0.182-0.104-0.104-0.182-0.26-0.182-0.442v-6.842h-1.249v-6.842c0-0.52 0.182-0.963 0.52-1.327 0.416-0.364 0.859-0.546 1.379-0.546z"></path>
</svg>
