<?xml version="1.0" encoding="utf-8"?>
<!-- Generated by IcoMoon.io -->
<!DOCTYPE svg PUBLIC "-//W3C//DTD SVG 1.1//EN" "http://www.w3.org/Graphics/SVG/1.1/DTD/svg11.dtd">
<svg version="1.1" xmlns="http://www.w3.org/2000/svg" xmlns:xlink="http://www.w3.org/1999/xlink" width="16" height="16" viewBox="0 0 16 16">
<path fill="#444444" d="M8 9c2.209 0 4-1.791 4-4s-1.791-4-4-4-4 1.791-4 4 1.791 4 4 4zM5 5c0-0.042 0.001-0.083 0.003-0.125h5.995c0.002 0.042 0.003 0.083 0.003 0.125s-0.001 0.083-0.003 0.125h-5.995c-0.002-0.042-0.003-0.083-0.003-0.125zM5.885 2.875h4.231c0.079 0.079 0.155 0.163 0.225 0.25h-4.68c0.070-0.087 0.145-0.171 0.224-0.25zM6.17 2.625c0.12-0.092 0.247-0.176 0.38-0.25h2.902c0.133 0.074 0.26 0.158 0.38 0.25h-3.661zM10.521 3.375c0.053 0.081 0.101 0.164 0.145 0.25h-5.332c0.045-0.086 0.093-0.169 0.145-0.25h5.041zM10.781 3.875c0.033 0.082 0.063 0.165 0.089 0.25h-5.739c0.026-0.085 0.056-0.168 0.089-0.25h5.562zM10.934 4.375c0.018 0.082 0.031 0.165 0.043 0.25h-5.953c0.011-0.085 0.025-0.168 0.043-0.25h5.869zM10.976 5.375c-0.011 0.085-0.025 0.168-0.043 0.25h-5.869c-0.018-0.082-0.032-0.165-0.043-0.25h5.953zM10.87 5.875c-0.026 0.085-0.056 0.168-0.089 0.25h-5.562c-0.033-0.082-0.063-0.165-0.089-0.25h5.74zM10.666 6.375c-0.044 0.086-0.093 0.169-0.145 0.25h-5.042c-0.052-0.081-0.101-0.164-0.145-0.25h5.331zM10.116 7.125h-4.231c-0.080-0.079-0.154-0.162-0.224-0.25h4.68c-0.070 0.088-0.145 0.171-0.225 0.25zM9.831 7.375c-0.12 0.093-0.246 0.176-0.38 0.25h-2.902c-0.133-0.074-0.26-0.157-0.38-0.25h3.661zM7.143 7.875h1.715c-0.271 0.081-0.559 0.125-0.857 0.125s-0.585-0.044-0.857-0.125zM8.857 2.125h-1.715c0.271-0.081 0.559-0.125 0.858-0.125s0.585 0.044 0.857 0.125zM12 10h-8c-2.209 0-4 1.791-4 4v1h16v-1c0-2.209-1.791-4-4-4zM1.885 11.875h12.231c0.079 0.079 0.155 0.162 0.225 0.25h-12.68c0.070-0.088 0.145-0.171 0.224-0.25zM2.17 11.625c0.119-0.092 0.247-0.176 0.38-0.25h10.902c0.133 0.074 0.26 0.158 0.38 0.25h-11.661zM14.521 12.375c0.053 0.081 0.101 0.164 0.145 0.25h-13.332c0.044-0.086 0.093-0.169 0.145-0.25h13.041zM14.781 12.875c0.033 0.082 0.063 0.165 0.089 0.25h-13.739c0.026-0.085 0.056-0.168 0.089-0.25h13.562zM14.934 13.375c0.018 0.082 0.031 0.165 0.043 0.25h-13.953c0.010-0.085 0.025-0.168 0.042-0.25h13.868zM12 11c0.298 0 0.585 0.044 0.857 0.125h-9.714c0.272-0.081 0.559-0.125 0.857-0.125h8zM1 14c0-0.042 0.001-0.084 0.003-0.125h13.995c0.002 0.041 0.003 0.083 0.003 0.125h-14z"></path>
</svg>
